# xmcd
#
# Track frame offsets:
#	150
#	20649
#	39674
#	56007
#	75068
#	92136
#	108734
#	124058
#	144215
#	166392
#	186255
#	208152
#	228944
#	244727
#	272157
#	291771
#	341807
#
# Disc length: 4625 seconds
#
# Revision: 0
# Processed by: cddbd v1.5.2PL0 Copyright (c) Steve Scherf et al.
# Submitted via: EasyCDDAExtractor 12.0.0.1
#
DISCID=f5120f11
DTITLE=Robin Thicke - The Evolution Of Robin Thicke
DYEAR=2006
DGENRE=R&B
TTITLE0=Got 2 Be Down (featuring Faith Evans)
TTITLE1=Complicated
TTITLE2=Would That Make U Love Me
TTITLE3=Lost Without U
TTITLE4=Ask Myself
TTITLE5=All Night Long (featuring Lil' Wayne)
TTITLE6=Everything I Can't Have
TTITLE7=Teach U A Lesson
TTITLE8=I Need Love
TTITLE9=Wanna Love U Girl (featuring Pharrell)
TTITLE10=Can U Believe
TTITLE11=Shooter (featuring Lil' Wayne)
TTITLE12=Cocaine
TTITLE13=2 The Sky
TTITLE14=Lonely World
TTITLE15=Angels
TTITLE16=DATA
EXTD=
EXTT0=
EXTT1=
EXTT2=
EXTT3=
EXTT4=
EXTT5=
EXTT6=
EXTT7=
EXTT8=
EXTT9=
EXTT10=
EXTT11=
EXTT12=
EXTT13=
EXTT14=
EXTT15=
EXTT16=
PLAYORDER=
